inDegrees=yes
name=ik_S50_A04_T01
DataType=double
version=3
OpenSimVersion=4.3-2021-08-27-4bc7ad9
endheader
time	pelvis_tilt	pelvis_list	pelvis_rotation	pelvis_tx	pelvis_ty	pelvis_tz	hip_flexion_r	hip_adduction_r	hip_rotation_r	knee_angle_r	knee_angle_r_beta	ankle_angle_r	subtalar_angle_r	mtp_angle_r	hip_flexion_l	hip_adduction_l	hip_rotation_l	knee_angle_l	knee_angle_l_beta	ankle_angle_l	subtalar_angle_l	mtp_angle_l	lumbar_extension	lumbar_bending	lumbar_rotation	arm_flex_r	arm_add_r	arm_rot_r	elbow_flex_r	pro_sup_r	wrist_flex_r	wrist_dev_r	arm_flex_l	arm_add_l	arm_rot_l	elbow_flex_l	pro_sup_l	wrist_flex_l	wrist_dev_l
18.1199999999997	-23.35425673127799	-13.66818573874954	25.15051834521863	0	0.9399999999999999	0	76.60780489240166	1.486054336553816	-10.02611295475876	58.28804221983621	1.017318251277606	0	0	0	79.46622063495234	-2.10711512126129	-17.45456296306471	62.04239288549319	1.082844031667761	0	0	0	0	0	0	35.4342244451616	-35.4342244451616	4.669107022313389	80.81689152193997	85.3308932374388	0	0	35.4342244451616	-35.4342244451616	4.669107022313389	80.81689152193997	85.33089323737694	0	0
18.1399999999997	-23.60177427310425	-13.87982154495924	25.07236049216143	0	0.9399999999999999	0	78.05608992081763	1.559157861016165	-9.784200040868299	59.54553860716899	1.039265703568497	0	0	0	80.88357391386369	-2.20560398718437	-17.05577366947855	63.2444374441503	1.10382366697201	0	0	0	0	0	0	35.43681689719013	-35.43681689719013	4.669286489125039	80.81916464761176	85.3307137706359	0	0	35.43681689719013	-35.43681689719013	4.669286489125039	80.81916464761176	85.33071377057405	0	0
18.1599999999997	-23.70529130472666	-13.95239876738289	25.03310687977504	0	0.9399999999999999	0	79.24412705435105	1.69045296453572	-9.641786628196716	60.66574729318663	1.058817033448944	0	0	0	82.0898180490023	-2.225947543290983	-16.76984853940935	64.35014140996103	1.123121841727766	0	0	0	0	0	0	35.4390016933569	-35.4390016933569	4.669437703983023	80.82107992911283	85.33056255578531	0	0	35.4390016933569	-35.4390016933569	4.669437703983023	80.82107992911283	85.33056255572346	0	0
18.1799999999997	-23.79007321939044	-13.64454693431047	25.46981523870422	0	0.9399999999999999	0	80.26841202809916	1.366831258647894	-9.370728852121667	61.7756392054569	1.078188301659317	0	0	0	83.11804660992907	-1.710599490980367	-16.63622848272061	65.58110739057538	1.144606251069527	0	0	0	0	0	0	35.44235144228936	-35.44235144228936	4.66966981211544	80.82401981507147	85.33033044766418	0	0	35.44235144228936	-35.44235144228936	4.66966981211544	80.82401981507147	85.33033044760236	0	0
18.1999999999997	-23.62320298414412	-13.39872535981494	25.57565649218212	0	0.9399999999999999	0	80.01767828674794	1.274358793021859	-9.20333550786089	61.8004568788061	1.078621451771945	0	0	0	82.87085251834253	-1.631924245893469	-16.77297471773022	65.60734300876319	1.145064148988201	0	0	0	0	0	0	35.44310042372407	-35.44310042372407	4.669720294973224	80.82465913176534	85.33027996480888	0	0	35.44310042372407	-35.44310042372407	4.669720294973224	80.82465913176534	85.33027996474708	0	0
18.2199999999997	-23.2943594724447	-13.146009877003	25.65058064314593	0	0.9399999999999999	0	80.64014815797185	1.380601016537693	-9.034641863949679	62.8555780358358	1.097036789969565	0	0	0	83.49821443043824	-1.518260592561894	-16.54881195134115	66.66198506179714	1.163471125243636	0	0	0	0	0	0	35.44518521414201	-35.44518521414201	4.669864582605346	80.82648666598078	85.33013567718373	0	0	35.44518521414201	-35.44518521414201	4.669864582605346	80.82648666598078	85.33013567712197	0	0
18.2399999999997	-23.07710140666772	-13.08571493801822	25.65756168126265	0	0.9399999999999999	0	80.4184858683949	1.44161210195538	-9.04232482285059	62.87170853335049	1.097318320261181	0	0	0	84.2858393814391	-1.473329274452885	-16.31104986559033	67.66031446875934	1.180895260414609	0	0	0	0	0	0	35.44708168634789	-35.44708168634789	4.669995617794712	80.82814632862541	85.33000464200072	0	0	35.44708168634789	-35.44708168634789	4.669995617794712	80.82814632862541	85.33000464193894	0	0
18.2599999999997	-22.53898066487114	-13.04939790490413	25.44382154047202	0	0.9399999999999999	0	82.8365167420697	2.216835955779167	-8.763345706862932	65.81799882912519	1.148740786642007	0	0	0	84.83473977743542	-1.739139076428226	-15.90497608020268	68.73808961345262	1.199705985285664	0	0	0	0	0	0	35.45295197814215	-35.45295197814215	4.670360973006472	80.83277087736927	85.32963928680637	0	0	35.45295197814215	-35.45295197814215	4.670360973006472	80.83277087736927	85.32963928674477	0	0
18.2799999999997	-22.07044441542553	-12.89548912054983	25.40647508755537	0	0.9399999999999999	0	83.26384391430121	2.438214622891844	-8.701913114785425	66.75827993855873	1.165151787895928	0	0	0	86.23112007080897	-1.702819671224606	-15.50733878175444	70.61871681442389	1.232529121945178	0	0	0	0	0	0	35.44000479076339	-35.44000479076339	4.669635811752517	80.82359794318153	85.33036444802632	0	0	35.44000479076339	-35.44000479076339	4.669635811752517	80.82359794318153	85.3303644479645	0	0
18.2999999999997	-21.74977116246782	-12.46965051318644	25.81076689692364	0	0.9399999999999999	0	83.71656943350624	2.154658904246801	-8.498680612240479	67.68063825523267	1.18124997740504	0	0	0	86.67577337994031	-1.30687471870757	-15.50898294968614	71.48394200421687	1.247630150278259	0	0	0	0	0	0	35.4423877884016	-35.4423877884016	4.669800755756042	80.82568710958209	85.33019950403076	0	0	35.4423877884016	-35.4423877884016	4.669800755756042	80.82568710958209	85.33019950396894	0	0
18.3199999999997	-21.32249262502373	-11.99795577942596	26.23813256916755	0	0.9399999999999999	0	83.98695685786862	1.803799122113162	-8.280817511206219	68.50693053089138	1.195671498199081	0	0	0	86.91963674042586	-0.9728418911812814	-15.52910356084041	72.24974895224364	1.260996002955975	0	0	0	0	0	0	35.44396947562312	-35.44396947562312	4.669910038186618	80.82707125571666	85.33009022160553	0	0	35.44396947562312	-35.44396947562312	4.669910038186618	80.82707125571666	85.33009022154376	0	0
18.3399999999997	-20.68692392326065	-11.66297013496779	26.18949028039381	0	0.9399999999999999	0	84.2203603389848	1.984224581044108	-8.220852130540061	69.52249861653047	1.213396505071659	0	0	0	87.08302664905419	-1.209003777677516	-15.39877823028593	73.16233310543312	1.276923601130656	0	0	0	0	0	0	35.44630671607709	-35.44630671607709	4.67007176502725	80.82911966524453	85.32992849477277	0	0	35.44630671607709	-35.44630671607709	4.67007176502725	80.82911966524453	85.32992849471103	0	0
18.3599999999997	-20.32827651342	-11.45942345154457	26.20812129049325	0	0.9399999999999999	0	84.63287589652774	2.012922035220537	-8.251149075402219	70.3001639223268	1.226969325136334	0	0	0	87.49423196570808	-1.323017805753768	-15.32554757699073	73.92230512691341	1.290187615128524	0	0	0	0	0	0	35.44798393491457	-35.44798393491457	4.670187705334484	80.83058813900523	85.3298125544712	0	0	35.44798393491457	-35.44798393491457	4.670187705334484	80.83058813900523	85.32981255440949	0	0
18.3799999999997	-19.69492478655073	-10.91759486450629	26.50694384747802	0	0.9399999999999999	0	84.60207201368945	1.794566410204807	-8.108354308885488	71.04797808572722	1.240021144480718	0	0	0	87.48263801079545	-1.170281343919265	-15.4742864831136	74.62838168364502	1.302510975814635	0	0	0	0	0	0	35.4506478715247	-35.4506478715247	4.670371985902324	80.83292220096853	85.32962827391239	0	0	35.4506478715247	-35.4506478715247	4.670371985902324	80.83292220096853	85.3296282738507	0	0
18.3999999999997	-18.99125786924752	-10.44136405309623	26.7957133701985	0	0.9399999999999999	0	84.47352440475694	1.562248212503144	-7.897713580222836	71.63617668002348	1.25028714660679	0	0	0	87.36937483790469	-1.044325092541249	-15.54093716721016	75.15616540554922	1.311722539500293	0	0	0	0	0	0	35.45198152044365	-35.45198152044365	4.670463977870159	80.83408733353193	85.32953628194906	0	0	35.45198152044365	-35.45198152044365	4.670463977870159	80.83408733353193	85.3295362818874	0	0
18.4199999999997	-18.27550173003132	-10.20446430766308	26.70403154050185	0	0.9399999999999999	0	84.47587490498506	1.740704605257927	-7.883735155741304	72.41255735132629	1.263837545569868	0	0	0	87.40113364374803	-1.278956541283067	-15.39512483399574	75.87151555954877	1.324207754992234	0	0	0	0	0	0	35.45469451113078	-35.45469451113078	4.670651633577419	80.83646413723081	85.32934862625088	0	0	35.45469451113078	-35.45469451113078	4.670651633577419	80.83646413723081	85.32934862618923	0	0
18.4399999999997	-16.78662318053623	-9.462838841276939	26.6627499683479	0	0.9399999999999999	0	83.52052862875313	2.022926622283378	-7.80403679225353	72.99312887536828	1.273970430207722	0	0	0	86.45604981841426	-1.592580526811209	-15.3873943038277	76.41574010720024	1.333706265218929	0	0	0	0	0	0	35.5098686409586	-35.5098686409586	4.673867494480805	80.87715345271752	85.32613276549944	0	0	35.5098686409586	-35.5098686409586	4.673867494480805	80.87715345271752	85.32613276543843	0	0
18.4599999999997	-15.99866856575288	-8.892722632899178	26.79333575560255	0	0.9399999999999999	0	83.21394579116107	2.022287984450303	-7.74760456226867	73.41004254846158	1.281246946499784	0	0	0	85.52085262546467	-1.562180278096443	-15.52765030959497	76.3431080377576	1.332438596464618	0	0	0	0	0	0	35.51107954306988	-35.51107954306988	4.673950405719829	80.87820350298834	85.32604985426441	0	0	35.51107954306988	-35.51107954306988	4.673950405719829	80.87820350298834	85.32604985420343	0	0
18.47999999999969	-15.22335202064288	-8.216190824036905	27.03049519438495	0	0.9399999999999999	0	82.94626977647047	1.893238486008869	-7.615238255102478	74.24694277751715	1.295853611007498	0	0	0	85.21233636581485	-1.368711366132905	-15.7842733419685	76.76688741006805	1.33983494181347	0	0	0	0	0	0	35.51369128967206	-35.51369128967206	4.674130186105039	80.88048043986979	85.32587007388793	0	0	35.51369128967206	-35.51369128967206	4.674130186105039	80.88048043986979	85.32587007382695	0	0
18.49999999999969	-14.76695518193846	-7.816176992368101	27.12995568881757	0	0.9399999999999999	0	82.37012607190668	1.863783817009895	-7.503922551343044	74.00294110980786	1.291594978525614	0	0	0	85.31979035305881	-1.2597898138648	-15.95222326543591	77.24954698106291	1.348258940493593	0	0	0	0	0	0	35.51527259427597	-35.51527259427597	4.674238740200176	80.88185526668205	85.32576151979801	0	0	35.51527259427597	-35.51527259427597	4.674238740200176	80.88185526668205	85.32576151973704	0	0
18.51999999999969	-13.76239819184087	-7.06449175245539	27.20241369893988	0	0.9399999999999999	0	82.64436400721294	2.010460125789332	-7.431358648867233	75.3461901839579	1.315039097543897	0	0	0	84.88678301050309	-1.284653614121761	-16.13278614339541	78.11593549699155	1.363380272698016	0	0	0	0	0	0	35.53033888891115	-35.53033888891115	4.675125686823076	80.89307812238908	85.32487457321716	0	0	35.53033888891115	-35.53033888891115	4.675125686823076	80.89307812238908	85.32487457315622	0	0
18.53999999999969	-11.8434939372437	-5.763358595839274	27.47474530521076	0	0.9399999999999999	0	81.22766490179839	2.012086399156351	-7.068535377742557	76.12844004471367	1.328691933187353	0	0	0	83.40977575572195	-1.102928360622728	-16.40866397453226	78.76531021960002	1.374713999686758	0	0	0	0	0	0	35.59878288619026	-35.59878288619026	4.679089775987118	80.94323252438434	85.32091048424023	0	0	35.59878288619026	-35.59878288619026	4.679089775987118	80.94323252438434	85.32091048418005	0	0
